<svg width="56" height="56" viewBox="0 0 56 56" fill="none" xmlns="http://www.w3.org/2000/svg">
<circle cx="28" cy="28" r="28" fill="#005C26" fill-opacity="0.07"/>
<path d="M28 19C23.0293 19 19 22.9108 19 27.7353C19 32.5598 23.0293 36.4706 28 36.4706C32.9707 36.4706 37 32.5598 37 27.7353C37 22.9108 32.9707 19 28 19ZM28 34.2163C24.3096 34.2163 21.3226 31.3178 21.3226 27.7353C21.3226 24.1535 24.3089 21.2543 28 21.2543C31.6904 21.2543 34.6774 24.1528 34.6774 27.7353C34.6774 31.3171 31.6911 34.2163 28 34.2163ZM28 23.2268C25.4346 23.2268 23.3548 25.2454 23.3548 27.7353C23.3548 30.2252 25.4346 32.2438 28 32.2438C30.5654 32.2438 32.6452 30.2252 32.6452 27.7353C32.6452 25.2454 30.5654 23.2268 28 23.2268ZM28 29.9896C26.7193 29.9896 25.6774 28.9783 25.6774 27.7353C25.6774 26.4923 26.7193 25.481 28 25.481C29.2807 25.481 30.3226 26.4923 30.3226 27.7353C30.3226 28.9783 29.2807 29.9896 28 29.9896Z" fill="#005C26"/>
</svg>
