<svg width="56" height="56" viewBox="0 0 56 56" fill="none" xmlns="http://www.w3.org/2000/svg">
<circle cx="28" cy="28" r="28" fill="#005C26" fill-opacity="0.07"/>
<g clip-path="url(#clip0_628_2)">
<path d="M37 33.707C36.8072 32.0697 35.7216 30.647 34.1379 29.9567L33.0096 29.4648C31.8582 30.975 29.9825 31.9484 27.8448 31.9484C25.8229 31.9484 23.9581 31.024 22.7763 29.5584L21.8621 29.957C20.2784 30.6473 19.1928 32.0697 19 33.707L19.5061 33.2972C20.5946 32.4165 21.926 31.8466 23.3448 31.6552L23.2794 31.7789C22.914 32.4686 22.7241 33.2292 22.7241 34.0001L23.2951 33.6404C24.1372 33.1105 25.1263 32.8277 26.1379 32.8277L25.8276 34.0001L26.803 33.6317C27.1838 33.4877 27.5901 33.4139 28 33.4139C28.4099 33.4139 28.8162 33.4877 29.197 33.6317L30.1724 34.0001L29.8621 32.8277C30.8737 32.8277 31.8632 33.1105 32.7049 33.6404L33.2759 34.0001C33.2759 33.229 33.086 32.4686 32.7206 31.7789L32.6552 31.6552C34.074 31.8466 35.4054 32.4162 36.4939 33.2972L37 33.707Z" fill="#005C26"/>
<path d="M21.0836 26.0097L21.6569 26.2806C21.8031 26.2026 21.9613 26.1431 22.1319 26.1134C22.19 25.8166 22.3406 25.5501 22.5578 25.345C21.9737 25.184 21.4443 24.8778 21.0262 24.4596C20.2674 23.9117 19.7151 23.1479 19.4516 22.2849C19.159 22.6361 19 23.0673 19 23.5213C19 23.975 19.1652 24.4196 19.4655 24.774C19.9006 25.2887 20.4605 25.7157 21.0836 26.0097Z" fill="#005C26"/>
<path d="M22.9649 24.8364L23.3762 24.9141C23.4441 24.5984 23.6241 24.3232 23.8699 24.1165C22.6285 23.6286 21.6891 22.6417 21.3133 21.405C21.021 21.7568 20.8621 22.188 20.8621 22.642C20.8621 23.0957 21.0272 23.5403 21.3276 23.8947C21.7385 24.3804 22.3204 24.7148 22.9649 24.8364Z" fill="#005C26"/>
<path d="M34.2069 21.9019V23.2363L35.4433 22.5689L34.2069 21.9019Z" fill="#005C26"/>
<path d="M29.104 19.9179C29.2191 19.7569 29.3519 19.6063 29.504 19.4715C30.0735 18.9673 30.8216 18.7187 31.5991 18.7642C32.4721 18.8176 33.2309 19.2645 33.7017 19.9199C34.1601 19.8656 34.5173 19.4993 34.5173 19.0517C34.5173 18.567 34.0995 18.1724 33.5862 18.1724H33.2759V17.8793C33.2759 17.3946 32.8581 17 32.3448 17C32.0768 17 31.829 17.1082 31.6475 17.3043L31.4138 17.5569L31.1801 17.3046C30.9986 17.1082 30.7508 17 30.4828 17C29.9695 17 29.5517 17.3946 29.5517 17.8793V18.1724H29.2414C28.7281 18.1724 28.3104 18.567 28.3104 19.0517C28.3104 19.4922 28.6557 19.8545 29.104 19.9179Z" fill="#005C26"/>
<path d="M27.6896 25.5001H23.6551C23.2511 25.5001 22.9097 25.7459 22.7812 26.0863H26.4482V26.6725H22.4138C22.009 26.6725 21.664 26.9175 21.5358 27.2587H28.3103C29.1659 27.2587 29.862 26.6012 29.862 25.7932C29.862 24.9851 29.1659 24.3276 28.3103 24.3276H24.8965C24.4925 24.3276 24.1511 24.5735 24.0226 24.9138H27.6896V25.5001Z" fill="#005C26"/>
<path d="M34.0517 25.793C34.3084 25.793 34.5173 25.5958 34.5173 25.3534C34.5173 25.2781 34.5095 25.2314 34.4936 25.1869C34.3463 24.77 34.2569 24.3395 34.2234 23.9027L33.5862 24.2467V21.4771C33.5862 20.3536 32.6958 19.4192 31.559 19.3495C30.9521 19.311 30.3714 19.5075 29.9285 19.8993C29.4854 20.2915 29.2414 20.8232 29.2414 21.3965V23.9421C29.9741 24.2721 30.4828 24.9767 30.4828 25.793C30.4828 26.6685 30.3317 27.5273 30.0324 28.3515L30.259 28.3158C30.876 28.2187 31.429 27.8811 31.7763 27.3892L32.3448 26.5842V27.5519C32.3448 28.2654 32.2421 28.9671 32.0431 29.6485C32.9252 28.7574 33.4873 27.5819 33.5694 26.2682C33.2131 26.0993 32.9655 25.7547 32.9655 25.3534V24.9137H33.5862V25.3534C33.5862 25.5958 33.795 25.793 34.0517 25.793ZM32.3448 21.3965H31.7242V20.8103H32.3448V21.3965Z" fill="#005C26"/>
<path d="M21.1566 26.6995L20.8058 26.5339C20.3773 26.3317 19.9804 26.0682 19.6207 25.7661V26.2227C19.6207 26.8127 19.864 27.367 20.3056 27.7843C20.7475 28.2014 21.3344 28.4312 21.9592 28.4312H22.0587C21.9666 28.2413 21.8858 28.0455 21.8147 27.845H20.862V27.5519C20.862 27.2331 20.9731 26.9402 21.1566 26.6995Z" fill="#005C26"/>
<path d="M31.6792 28.3416C31.2989 28.6251 30.8453 28.8179 30.3608 28.8942L29.0593 29.099L29.3078 28.511C29.4623 28.1461 29.5775 27.7718 29.6675 27.3926C29.2953 27.6748 28.8236 27.8448 28.3104 27.8448H22.47C23.3023 29.9338 25.4539 31.3621 27.8448 31.3621C29.0797 31.3621 30.2159 30.999 31.1485 30.3829L31.1254 30.3743L31.1698 30.2697C31.4334 29.6474 31.6037 29.0016 31.6792 28.3416Z" fill="#005C26"/>
</g>
<defs>
<clipPath id="clip0_628_2">
<rect width="18" height="17" fill="white" transform="translate(19 17)"/>
</clipPath>
</defs>
</svg>
